<svg width="100" height="100" viewBox="0 0 100 100" fill="none" xmlns="http://www.w3.org/2000/svg">
<g clip-path="url(#clip0)">
<path d="M87.6817 67.3275C86.2484 66.5763 84.4777 67.1298 83.7272 68.5632C77.2447 80.9384 64.5469 88.6261 50.5893 88.6261C30.001 88.6261 13.2475 71.8964 13.2072 51.3173L15.5582 53.6683C16.1303 54.2404 16.8801 54.5265 17.6297 54.5265C18.3793 54.5265 19.1293 54.2406 19.7012 53.6683C20.8453 52.5242 20.8453 50.6693 19.7012 49.5251L12.4809 42.3046C11.9438 41.6904 11.1564 41.3005 10.2766 41.3005C9.36426 41.3005 8.54961 41.7177 8.01231 42.3714L0.858594 49.5251C-0.285547 50.6691 -0.285547 52.5242 0.858594 53.6683C2.00254 54.8125 3.85762 54.8123 5.00176 53.6683L7.34785 51.3224C7.36836 62.8431 11.8637 73.6714 20.0123 81.8201C28.1797 89.9874 39.0389 94.4855 50.5895 94.4855C66.734 94.4855 81.4203 85.5945 88.9176 71.2822C89.6684 69.8488 89.115 68.0783 87.6817 67.3275Z" fill="#592BFF"/>
<path d="M99.142 46.3318C97.9981 45.1877 96.143 45.1877 94.9989 46.3318L92.6526 48.6779C92.6321 37.157 88.1369 26.3289 79.9881 18.1801C71.8209 10.0127 60.9617 5.51465 49.4111 5.51465C33.2666 5.51465 18.5803 14.4057 11.083 28.718C10.332 30.1512 10.8853 31.9219 12.3187 32.6727C13.7518 33.4234 15.5225 32.8701 16.2732 31.4369C22.7557 19.0617 35.4535 11.374 49.4111 11.374C69.999 11.374 86.7526 28.1037 86.7932 48.6824L84.4424 46.3316C83.2985 45.1875 81.4434 45.1875 80.2992 46.3316C79.1551 47.4758 79.1551 49.3307 80.2992 50.4748L87.5176 57.6932C88.0547 58.3086 88.8428 58.6994 89.7238 58.6994C90.6358 58.6994 91.4502 58.2826 91.9875 57.6293L99.1418 50.475C100.286 49.3307 100.286 47.4758 99.142 46.3318V46.3318Z" fill="#592BFF"/>
<path d="M54.0052 46.6357C51.3548 45.6988 48.4237 44.5674 46.78 43.2781C46.2632 42.873 46.04 41.9453 46.2237 40.9697C46.3153 40.483 46.7439 38.8562 48.4079 38.3549C51.1398 37.5322 53.0136 38.6234 53.6923 39.1309C54.9884 40.0994 56.8239 39.8344 57.7929 38.5385C58.7618 37.2426 58.4966 35.4066 57.2007 34.4377C56.5859 33.9779 55.0454 32.9701 52.8372 32.4807V31.2881C52.8372 29.6701 51.5255 28.3584 49.9075 28.3584C48.2896 28.3584 46.9778 29.6701 46.9778 31.2881V32.6715C46.8911 32.6957 46.8052 32.718 46.7179 32.7443C43.5093 33.7109 41.1136 36.4469 40.4657 39.8844C39.8694 43.0484 40.9032 46.1154 43.1638 47.8885C45.0263 49.3492 47.6015 50.5867 52.0525 52.1602C55.0157 53.2076 54.9515 55.6061 54.7862 56.5885C54.4515 58.5805 52.7757 60.7332 49.888 60.7525C47.0562 60.7725 46.1737 60.6312 43.9984 59.2082C42.6445 58.3223 40.8286 58.7018 39.9427 60.0559C39.057 61.41 39.4364 63.2256 40.7905 64.1113C43.1368 65.6463 44.8681 66.2689 46.9778 66.4961V67.8352C46.9778 69.4531 48.2896 70.7648 49.9075 70.7648C51.5255 70.7648 52.8372 69.4531 52.8372 67.8352V66.2146C54.4513 65.7703 55.9222 64.9586 57.1792 63.8035C58.9607 62.1668 60.1628 59.9494 60.5646 57.5598C61.3816 52.7016 58.7454 48.3113 54.0052 46.6357V46.6357Z" fill="#592BFF"/>
</g>
<defs>
<clipPath id="clip0">
<rect width="100" height="100" fill="white"/>
</clipPath>
</defs>
</svg>
