<svg width="100" height="100" viewBox="0 0 100 100" fill="none" xmlns="http://www.w3.org/2000/svg">
<path d="M50 0C22.3824 0 0 22.3863 0 50C0 77.6137 22.3824 100 50 100C77.6176 100 100 77.6137 100 50C100 22.3863 77.6176 0 50 0ZM52.0271 95.8947V87.8379C52.0271 86.7176 51.1189 85.8107 50 85.8107C48.8811 85.8107 47.9729 86.7174 47.9729 87.8379V95.8947C24.2471 94.858 5.1418 75.7514 4.10547 52.0271H12.1621C13.2811 52.0271 14.1893 51.1189 14.1893 50C14.1893 48.8797 13.2811 47.9729 12.1621 47.9729H4.10547C5.14199 24.2486 24.2475 5.1418 47.9729 4.10547V12.1621C47.9729 13.2811 48.8811 14.1893 50 14.1893C51.1189 14.1893 52.0271 13.2811 52.0271 12.1621V4.10547C75.7529 5.14199 94.8584 24.2486 95.8947 47.973H87.8379C86.7189 47.973 85.8107 48.8797 85.8107 50.0002C85.8107 51.1191 86.7189 52.0273 87.8379 52.0273H95.8947C94.858 75.7514 75.7525 94.858 52.0271 95.8947Z" fill="#592BFF"/>
<path d="M76.3243 21.8337C75.8513 21.8337 75.2944 21.9458 74.6718 22.181L41.7853 34.6054C39.0042 35.6554 35.8704 38.7919 34.8204 41.5716L22.3974 74.4582C21.5812 76.6164 22.2515 77.9513 23.8907 77.9513C24.3638 77.9513 24.9206 77.8392 25.5433 77.6041L58.4298 65.1796C61.2108 64.1296 64.3446 60.9931 65.3946 58.2134L77.8177 25.3269C78.6339 23.1689 77.9651 21.8337 76.3243 21.8337ZM56.9976 61.3878L27.4517 72.5501L38.614 43.0042C38.7493 42.6488 38.9681 42.2664 39.2261 41.8785L43.1003 45.7541C42.3396 46.9892 41.8923 48.4406 41.8923 50C41.8923 54.4783 45.522 58.108 50.0019 58.108C51.5601 58.108 53.0114 57.6607 54.2464 56.8984L58.1235 60.7755C57.7366 61.0337 57.353 61.2541 56.9976 61.3878ZM45.9462 50C45.9462 47.7648 47.7651 45.9458 50.0015 45.9458C52.2353 45.9458 54.0542 47.7648 54.0542 50C54.0542 52.2351 52.2353 54.0541 50.0015 54.0541C47.7651 54.0541 45.9462 52.2351 45.9462 50ZM61.6028 56.781C61.4675 57.1365 61.2487 57.5201 60.9892 57.908L57.0608 53.9781C57.7245 52.8023 58.1081 51.4468 58.1081 49.9998C58.1081 45.5214 54.4784 41.8917 50.0013 41.8917C48.554 41.8917 47.1972 42.2757 46.0202 42.939L42.0931 39.0107C42.4808 38.7511 42.8634 38.5324 43.22 38.397L72.7645 27.2347L61.6028 56.781Z" fill="#592BFF"/>
</svg>
