<svg width="100" height="100" viewBox="0 0 100 100" fill="none" xmlns="http://www.w3.org/2000/svg">
<g clip-path="url(#clip0)">
<path d="M20.2834 26.6284C24.6408 27.2388 28.6351 29.0435 31.8335 31.8473C37.2629 36.6062 44.2474 39.3961 51.5008 39.7033C51.9461 39.7221 52.3903 39.7316 52.8348 39.7314C59.7316 39.7314 66.5027 37.4722 72.0329 33.3014C74.2746 31.6108 76.2626 29.6485 77.9729 27.4581C79.9176 29.2089 81.6938 31.1483 83.2578 33.2436C83.6414 33.7572 84.2292 34.0284 84.8242 34.0284C85.2304 34.0284 85.6404 33.9021 85.9911 33.6404C86.8554 32.9952 87.033 31.7715 86.3877 30.9071C84.3391 28.1629 81.9586 25.6629 79.3273 23.4674C78.2571 20.3 76.6881 17.3147 74.6569 14.5861C70.4891 8.98679 64.7363 5.00213 58.0205 3.06272C51.5242 1.18697 44.4636 1.42737 38.1392 3.74017C37.1262 4.11044 36.6054 5.23198 36.9758 6.24494C37.3461 7.25771 38.4674 7.77874 39.4806 7.40828C45.0319 5.37806 51.2313 5.16753 56.9369 6.81518C62.8258 8.51576 67.8699 12.0093 71.5239 16.9182C72.0375 17.6082 72.5131 18.3187 72.9585 19.0438C72.4033 18.727 71.8434 18.4188 71.2749 18.1273C65.5924 15.2136 59.4885 13.6218 53.1082 13.3782L48.6652 9.46115C47.8561 8.74795 46.6223 8.82548 45.9089 9.63456C45.1957 10.4436 45.2733 11.6777 46.0823 12.3909L47.3677 13.5239C44.4013 13.7946 41.4782 14.3654 38.6372 15.2313C37.6054 15.5458 37.0239 16.637 37.3385 17.6687C37.6527 18.7004 38.7451 19.2824 39.7757 18.9674C43.5215 17.8257 47.4263 17.2469 51.3819 17.2469C54.8164 17.2469 58.1666 17.6754 61.4082 18.5182L56.7129 22.3689C55.879 23.0528 55.7573 24.2833 56.4412 25.1174C56.8275 25.5883 57.3876 25.832 57.9524 25.832C58.3878 25.832 58.8265 25.6869 59.1897 25.3891L65.8207 19.9509C67.0641 20.4377 68.2896 20.9857 69.4929 21.6028C71.397 22.5791 73.2214 23.7172 74.9475 24.9919C73.4356 26.9399 71.671 28.6818 69.6806 30.1832C64.515 34.0792 58.1164 36.0741 51.6656 35.8013C45.2986 35.5318 39.1699 33.0844 34.4078 28.9103C31.2178 26.1142 27.3665 24.1619 23.1617 23.1925C24.0212 21.0525 25.1369 19.0359 26.4924 17.176C27.1274 16.3044 26.9359 15.0827 26.0643 14.4476C25.1927 13.8128 23.9708 14.0041 23.3357 14.8759C21.2967 17.6744 19.7338 20.7814 18.6906 24.1109C18.5191 24.6585 18.597 25.2537 18.9038 25.7386C19.2106 26.2231 19.7151 26.5487 20.2834 26.6284V26.6284Z" fill="#592BFF"/>
<path d="M38.9649 81.4241C40.3716 74.3428 39.2956 66.899 35.9347 60.4636C32.5275 53.9394 26.9125 48.7614 20.1245 45.8834C17.5397 44.7874 14.847 44.0422 12.0948 43.6563C12.6385 41.0982 13.4298 38.5919 14.4617 36.191C14.8876 35.2001 14.4295 34.0516 13.4388 33.6257C12.4469 33.1996 11.2992 33.6579 10.8733 34.6488C9.52111 37.7951 8.54623 41.1068 7.96056 44.4834C5.75282 46.9936 3.95168 49.8454 2.60419 52.9686C-0.759071 60.7638 -0.869018 69.4186 2.29446 77.3385C5.47434 85.3002 11.5679 91.5385 19.4529 94.9047C23.4155 96.5965 27.6122 97.4511 31.8502 97.4511C34.1771 97.4511 36.517 97.1933 38.8359 96.6748C39.3958 96.5496 39.8726 96.1844 40.139 95.6763C40.4058 95.1681 40.4355 94.5684 40.2203 94.0366C38.5705 89.9571 38.1361 85.5959 38.9649 81.4241V81.4241ZM20.9865 91.3122C14.0639 88.3569 8.71359 82.8796 5.92175 75.8895C3.14631 68.9409 3.2418 61.3502 6.19046 54.5155C6.53124 53.7258 6.90854 52.9587 7.31396 52.2103C7.31728 52.8495 7.33017 53.4885 7.362 54.1265C7.67993 60.5046 9.35336 66.5869 12.3329 72.2341L11.1621 78.0404C10.9489 79.0977 11.6332 80.1276 12.6904 80.3407C12.8207 80.3668 12.9506 80.3795 13.0785 80.3795C13.9889 80.3795 14.8039 79.7392 14.9907 78.8123L15.3294 77.1329C17.0469 79.5664 19.0029 81.8126 21.1732 83.8399C21.5497 84.1916 22.0284 84.3656 22.5058 84.3656C23.028 84.3656 23.5489 84.1574 23.9334 83.7457C24.6698 82.9575 24.6276 81.7218 23.8395 80.9855C20.9781 78.3124 18.5243 75.2202 16.5464 71.7947C14.8291 68.8202 13.5251 65.7046 12.6342 62.4759L18.3167 64.6168C18.5434 64.7024 18.7762 64.7428 19.0047 64.7428C19.7943 64.7428 20.5377 64.2604 20.8324 63.4779C21.2126 62.4687 20.7029 61.342 19.6935 60.9618L11.6683 57.9382C11.4681 56.618 11.3301 55.2826 11.2627 53.9318C11.1563 51.7948 11.2295 49.6456 11.4703 47.5137C13.9133 47.849 16.3045 48.5059 18.5997 49.479C24.5564 52.0045 29.4831 56.5477 32.4724 62.2716C35.4224 67.9203 36.3674 74.4518 35.1336 80.6629C34.3071 84.8239 34.5419 89.1351 35.805 93.2615C30.7697 93.9818 25.6887 93.3195 20.9865 91.3122V91.3122Z" fill="#592BFF"/>
<path d="M99.7644 60.6169C98.9647 53.9908 96.1436 47.88 91.6059 42.9457C91.2174 42.5231 90.6587 42.2924 90.0897 42.3163C89.5161 42.3393 88.9822 42.6135 88.6291 43.0658C85.9216 46.5343 82.3617 49.0908 78.3343 50.459C71.4984 52.7814 65.5897 57.4353 61.6973 63.5634C57.7507 69.7764 56.0737 77.2282 56.9754 84.5458C57.3187 87.3324 58.0196 90.0368 59.0615 92.6132C56.5743 93.4213 54.0082 93.9894 51.4128 94.296C50.3418 94.4225 49.5761 95.3935 49.7026 96.4645C49.82 97.4577 50.6635 98.1883 51.6395 98.1883C51.7161 98.1883 51.7934 98.1838 51.8713 98.1746C55.2734 97.7725 58.6299 96.9605 61.8478 95.7788C63.8976 96.1893 65.9827 96.3977 68.0842 96.3977C69.3422 96.3977 70.6061 96.3239 71.8712 96.1762C80.3038 95.1912 87.8538 90.9591 93.1311 84.2595C98.4363 77.5246 100.792 69.1282 99.7644 60.6169V60.6169ZM90.0631 81.8426C85.433 87.7204 78.8116 91.4331 71.4181 92.2968C70.5637 92.3966 69.7107 92.4535 68.8599 92.4767C69.4117 92.1543 69.9587 91.8235 70.4952 91.477C75.86 88.0128 80.2907 83.5223 83.6916 78.1185L89.3054 76.2293C90.3275 75.8852 90.8775 74.7777 90.5334 73.7556C90.1895 72.7336 89.0824 72.1831 88.0596 72.5276L86.4358 73.0742C87.6845 70.37 88.6516 67.5532 89.3222 64.6598C89.5659 63.6091 88.9115 62.5599 87.8608 62.3163C86.8104 62.0726 85.7611 62.727 85.5176 63.7777C84.6331 67.5928 83.1819 71.2641 81.2044 74.6892C79.4871 77.6637 77.4408 80.3506 75.0901 82.7365L74.103 76.7448C73.9276 75.6807 72.9258 74.9603 71.8585 75.1353C70.7944 75.3106 70.0738 76.3154 70.2491 77.3797L71.6433 85.8416C70.6001 86.6751 69.5127 87.4623 68.3765 88.196C66.5789 89.3568 64.6813 90.3678 62.7143 91.2253C61.7832 88.942 61.1567 86.5427 60.8519 84.0683C60.0607 77.6469 61.5317 71.1086 64.9941 65.6579C68.4111 60.2787 73.5948 56.1944 79.5908 54.1574C83.6074 52.7927 87.224 50.4338 90.1658 47.2768C93.308 51.2778 95.2744 56.0093 95.887 61.085C96.7888 68.5578 94.7205 75.9297 90.0631 81.8426V81.8426Z" fill="#592BFF"/>
<path d="M31.0867 11.7244C32.1652 11.7244 33.0396 10.85 33.0396 9.77149C33.0396 8.69294 32.1652 7.8186 31.0867 7.8186C30.0081 7.8186 29.1338 8.69294 29.1338 9.77149C29.1338 10.85 30.0081 11.7244 31.0867 11.7244Z" fill="#592BFF"/>
</g>
<defs>
<clipPath id="clip0">
<rect width="100" height="100" fill="white"/>
</clipPath>
</defs>
</svg>
